<svg width="137" height="33" viewBox="0 0 137 33" fill="none" xmlns="http://www.w3.org/2000/svg">
<path d="M50.6049 12.3896C50.2583 11.751 49.7565 11.2675 49.0997 10.9391C48.4611 10.5925 47.704 10.4192 46.8283 10.4192C45.3139 10.4192 44.1008 10.9209 43.1885 11.9243C42.2762 12.9095 41.8202 14.2323 41.8202 15.8925C41.8202 17.6622 42.2946 19.0488 43.2432 20.0522C44.2102 21.0374 45.5329 21.5301 47.2114 21.5301C48.3608 21.5301 49.3278 21.2382 50.1123 20.6543C50.9151 20.0705 51.4988 19.2312 51.8638 18.1366H45.9252V14.6884H56.1056V19.0397C55.759 20.2073 55.166 21.2929 54.3268 22.2963C53.5058 23.2997 52.4567 24.1117 51.1796 24.732C49.9025 25.3522 48.4611 25.6624 46.8556 25.6624C44.9582 25.6624 43.2614 25.2519 41.7654 24.4309C40.2876 23.5917 39.1291 22.4332 38.2899 20.9553C37.4688 19.4775 37.0583 17.79 37.0583 15.8925C37.0583 13.995 37.4688 12.3075 38.2899 10.8297C39.1291 9.33364 40.2876 8.17508 41.7654 7.35408C43.2432 6.51487 44.9308 6.09521 46.8283 6.09521C49.1271 6.09521 51.061 6.6517 52.63 7.76458C54.2173 8.87746 55.2664 10.4192 55.7772 12.3896H50.6049ZM63.3775 12.8001C63.9248 11.9608 64.609 11.304 65.43 10.8297C66.251 10.3371 67.1632 10.0908 68.1666 10.0908V15.0441H66.8804C65.7128 15.0441 64.8371 15.2996 64.2532 15.8104C63.6693 16.303 63.3775 17.1787 63.3775 18.4376V25.5256H58.6978V10.255H63.3775V12.8001ZM77.3546 25.7445C75.8585 25.7445 74.5085 25.4253 73.3043 24.7867C72.1184 24.1481 71.1788 23.2359 70.4856 22.05C69.8104 20.8641 69.473 19.4775 69.473 17.8903C69.473 16.3212 69.8196 14.9438 70.5129 13.7579C71.2061 12.5538 72.1549 11.6324 73.3591 10.9939C74.5632 10.3553 75.9132 10.036 77.4093 10.036C78.9054 10.036 80.2555 10.3553 81.4596 10.9939C82.6638 11.6324 83.6124 12.5538 84.3058 13.7579C84.999 14.9438 85.3457 16.3212 85.3457 17.8903C85.3457 19.4593 84.9899 20.8459 84.2784 22.05C83.5851 23.2359 82.6272 24.1481 81.4049 24.7867C80.2007 25.4253 78.8506 25.7445 77.3546 25.7445ZM77.3546 21.6942C78.2486 21.6942 79.0057 21.3658 79.626 20.709C80.2645 20.0522 80.5839 19.1126 80.5839 17.8903C80.5839 16.6679 80.2737 15.7283 79.6534 15.0715C79.0513 14.4147 78.3033 14.0863 77.4093 14.0863C76.4971 14.0863 75.74 14.4147 75.1379 15.0715C74.5358 15.7101 74.2348 16.6496 74.2348 17.8903C74.2348 19.1126 74.5267 20.0522 75.1105 20.709C75.7126 21.3658 76.4606 21.6942 77.3546 21.6942ZM109.749 10.255L105.616 25.5256H100.444L98.0362 15.6188L95.5458 25.5256H90.4009L86.2411 10.255H90.9208L93.0828 21.1743L95.6553 10.255H100.608L103.208 21.1195L105.343 10.255H109.749ZM119.196 14.141H116.679V25.5256H111.999V14.141H110.302V10.255H111.999V9.81708C111.999 7.93794 112.537 6.51487 113.614 5.54787C114.69 4.56267 116.268 4.07007 118.348 4.07007C118.694 4.07007 118.95 4.07919 119.114 4.09744V8.06561C118.221 8.01088 117.591 8.13856 117.226 8.44875C116.861 8.75894 116.679 9.31533 116.679 10.1181V10.255H119.196V14.141ZM136.994 10.255L127.416 32.7778H122.38L125.883 25.0056L119.671 10.255H124.898L128.429 19.8059L131.931 10.255H136.994Z" fill="white"/>
<path d="M16.1565 7.63201C16.1565 3.56277 19.4552 0.264038 23.5244 0.264038H30.8924V7.63201C30.8924 11.7012 27.5937 15 23.5244 15C19.4552 15 16.1565 11.7012 16.1565 7.63201Z" fill="#FF6D35"/>
<path d="M23.5243 32.6771C19.4551 32.6771 16.1564 29.3784 16.1564 25.3091V17.9412H23.5243C27.5935 17.9412 30.8923 21.2399 30.8923 25.3091C30.8923 29.3784 27.5935 32.6771 23.5243 32.6771Z" fill="#5CC97B"/>
<path d="M13.8348 15.6522C13.8348 7.47539 7.70856 0.846924 0.151459 0.846924V25.0214C0.151459 29.1096 3.21458 32.424 6.99324 32.424C10.7717 32.424 13.8348 29.1096 13.8348 25.0214V15.6522Z" fill="#3D96F4"/>
</svg>
